<svg xmlns="http://www.w3.org/2000/svg" viewBox="0 0 100 100">
<defs><linearGradient id="g" x1="0" y1="0" x2="0" y2="1"><stop offset="0" stop-color="#cf5d42"></stop><stop offset="1" stop-color="#b8472d"></stop></linearGradient></defs>
<rect width="100" height="100" fill="url(#g)"></rect>
<g transform="translate(33.27 64.46) scale(0.5118)" fill="#ffffff">
<path d="M3.77 -54.72L26.77 -54.72L26.77 1.53L26.40 5.03L25.77 7.90L24.90 10.40L23.27 13.28L21.27 15.53L19.27 17.03L17.15 18.15L13.90 19.28L10.15 20.03L6.15 20.40L0.40 20.40L0.40 7.03L4.65 7.03L6.40 6.78L7.78 6.28L8.78 5.65L10.03 4.40L10.78 3.15L11.28 1.53L11.40 -42.97L3.77 -43.10L3.77 -54.60ZM15.28 -76.97L18.90 -76.97L21.02 -76.47L22.90 -75.47L24.65 -73.47L25.52 -71.22L25.77 -67.97L25.27 -65.47L24.02 -63.22L22.90 -62.10L21.40 -61.22L19.02 -60.60L16.02 -60.47L13.78 -60.85L11.53 -61.85L10.28 -62.97L9.53 -63.97L8.65 -65.97L8.28 -68.47L8.40 -70.47L8.90 -72.35L9.78 -73.97L11.40 -75.60L12.78 -76.35L15.15 -76.85Z"></path>
<circle cx="53.00" cy="-22.25" r="13"></circle>
</g>
</svg>